<svg width="400" height="400" viewBox="0 0 400 400" xmlns="http://www.w3.org/2000/svg">
  <!-- Fondo circular -->
  <circle cx="200" cy="200" r="190" fill="#1e3a8a"/>
  <circle cx="200" cy="200" r="170" fill="#3b82f6"/>
  
  <!-- Contenedor principal -->
  <rect x="120" y="180" width="160" height="80" rx="8" fill="#93c5fd" stroke="#1e3a8a" stroke-width="3"/>
  
  <!-- Detalles del contenedor -->
  <rect x="130" y="190" width="20" height="60" fill="#1e3a8a"/>
  <rect x="160" y="190" width="20" height="60" fill="#1e3a8a"/>
  <rect x="190" y="190" width="20" height="60" fill="#1e3a8a"/>
  <rect x="220" y="190" width="20" height="60" fill="#1e3a8a"/>
  <rect x="250" y="190" width="20" height="60" fill="#1e3a8a"/>
  
  <!-- Grúa portuaria -->
  <rect x="90" y="120" width="8" height="100" fill="#1e3a8a"/>
  <rect x="85" y="115" width="18" height="8" fill="#1e3a8a"/>
  <rect x="98" y="125" width="80" height="6" fill="#1e3a8a"/>
  <rect x="175" y="125" width="6" height="40" fill="#1e3a8a"/>
  
  <!-- Cable de la grúa -->
  <line x1="175" y1="131" x2="200" y2="175" stroke="#374151" stroke-width="2"/>
  
  <!-- Gancho -->
  <circle cx="200" cy="175" r="4" fill="#374151"/>
  
  <!-- Texto TrackPort -->
  <text x="200" y="320" text-anchor="middle" fill="white" font-family="Arial, sans-serif" font-size="32" font-weight="bold">TrackPort</text>
  
  <!-- Texto descriptivo -->
  <text x="200" y="345" text-anchor="middle" fill="#93c5fd" font-family="Arial, sans-serif" font-size="12">Container Tracking & Customs</text>
</svg>